<?xml version="1.0" standalone="no"?>
<!DOCTYPE svg PUBLIC "-//W3C//DTD SVG 1.0//EN" "http://www.w3.org/TR/2001/REC-SVG-20010904/DTD/svg10.dtd">
<svg xmlns="http://www.w3.org/2000/svg" xmlns:xlink="http://www.w3.org/1999/xlink" id="body_1" width="96" height="96">

<defs>
    <clipPath  id="1">

    <path id=""  clip-rule="evenodd" transform="matrix(1 0 0 1 0 0)"  d="M72 0L72 72L72 72L0 72L0 72L0 0L0 0L72 0z" />    </clipPath>
</defs>

<g transform="matrix(1.3333 0 0 1.3333 0 0)">
	<g clip-path="url(#1)" >
    <path id=""  transform="matrix(1 0 0 -1 0 72)"  d="M39 9L39 9L39 9L39 9L39 9L39 55.758003L39 55.758003L54.879 39.879L54.879 39.879L54.879 39.879C 56.050503 38.7075 57.9495 38.7075 59.121002 39.879L59.121002 39.879L59.121002 39.879C 60.292503 41.050503 60.292503 42.950253 59.121002 44.12175L59.121002 44.12175L38.121002 65.12175C 36.9495 66.29325 35.04975 66.29325 33.879 65.12175L33.879 65.12175L12.879002 44.12175C 12.293251 43.536 12 42.767998 12 42L12 42L12 42C 12 41.23275 12.293251 40.46475 12.879002 39.879L12.879002 39.879L12.879002 39.879C 14.050503 38.7075 15.950253 38.7075 17.121002 39.879L17.121002 39.879L33 55.758003L33 55.758003L33 55.758003L33 55.758003L33 9L33 9L33 9C 33 7.344 34.34325 6 36 6L36 6L36 6C 37.65675 6 39 7.3432503 39 9z" stroke="#FFFFFF" stroke-width="1" fill="#000000" fill-rule="nonzero" />
	</g>
</g>
</svg>